HIERARCHY
ROOT Hips
{
	OFFSET -0.001795 -0.223333 0.028219
	CHANNELS 6 Xposition Yposition Zposition Zrotation Yrotation Xrotation 
	JOINT LeftUpLeg
	{
		OFFSET 0.069520 -0.091406 -0.006815
		CHANNELS 3 Zrotation Yrotation Xrotation
		JOINT LeftLeg
		{
			OFFSET 0.034277 -0.375199 -0.004496
			CHANNELS 3 Zrotation Yrotation Xrotation
			JOINT LeftFoot
			{
				OFFSET -0.013596 -0.397961 -0.043693
				CHANNELS 3 Zrotation Yrotation Xrotation
				JOINT LeftToe
				{
					OFFSET 0.026358 -0.055791 0.119288
					CHANNELS 3 Zrotation Yrotation Xrotation
					End Site
					{
						OFFSET 0.000000 0.000000 0.000000
					}
				}
			}
		}
	}
	JOINT RightUpLeg
	{
		OFFSET -0.067670 -0.090522 -0.004320
		CHANNELS 3 Zrotation Yrotation Xrotation
		JOINT RightLeg
		{
			OFFSET -0.038290 -0.382569 -0.008850
			CHANNELS 3 Zrotation Yrotation Xrotation
			JOINT RightFoot
			{
				OFFSET 0.015774 -0.398415 -0.042312
				CHANNELS 3 Zrotation Yrotation Xrotation
				JOINT RightToe
				{
					OFFSET -0.025372 -0.048144 0.123348
					CHANNELS 3 Zrotation Yrotation Xrotation
					End Site
					{
						OFFSET 0.000000 0.000000 0.000000
					}
				}
			}
		}
	}
	JOINT Spine
	{
		OFFSET -0.002533 0.108963 -0.026696
		CHANNELS 3 Zrotation Yrotation Xrotation
		JOINT Spine1
		{
			OFFSET 0.005487 0.135180 0.001092
			CHANNELS 3 Zrotation Yrotation Xrotation
			JOINT Spine2
			{
				OFFSET 0.001457 0.052922 0.025425
				CHANNELS 3 Zrotation Yrotation Xrotation
				JOINT Neck
				{
					OFFSET -0.002778 0.213870 -0.042857
					CHANNELS 3 Zrotation Yrotation Xrotation
					JOINT Head
					{
						OFFSET 0.005152 0.064970 0.051349
						CHANNELS 3 Zrotation Yrotation Xrotation
						End Site
						{
							OFFSET 0.000000 0.000000 0.000000
						}
					}
				}
				JOINT LeftShoulder
				{
					OFFSET 0.078845 0.121749 -0.034090
					CHANNELS 3 Zrotation Yrotation Xrotation
					JOINT LeftArm
					{
						OFFSET 0.090977 0.030469 -0.008868
						CHANNELS 3 Zrotation Yrotation Xrotation
						JOINT LeftForeArm
						{
							OFFSET 0.259612 -0.012772 -0.027456
							CHANNELS 3 Zrotation Yrotation Xrotation
							JOINT LeftHand
							{
								OFFSET 0.249234 0.008986 -0.001171
								CHANNELS 3 Zrotation Yrotation Xrotation
								End Site
								{
									OFFSET 0.000000 0.000000 0.000000
								}
							}
						}
					}
				}
				JOINT RightShoulder
				{
					OFFSET -0.081759 0.118833 -0.038615
					CHANNELS 3 Zrotation Yrotation Xrotation
					JOINT RightArm
					{
						OFFSET -0.096012 0.032551 -0.009143
						CHANNELS 3 Zrotation Yrotation Xrotation
						JOINT RightForeArm
						{
							OFFSET -0.253742 -0.013329 -0.021401
							CHANNELS 3 Zrotation Yrotation Xrotation
							JOINT RightHand
							{
								OFFSET -0.255298 0.007772 -0.005559
								CHANNELS 3 Zrotation Yrotation Xrotation
								End Site
								{
									OFFSET 0.000000 0.000000 0.000000
								}
							}
						}
					}
				}
			}
		}
	}
}
MOTION
Frames: 5
Frame Time: 0.050000
0.400458 0.902044 0.101944 171.949512 -76.822486 -179.911046 16.899705 11.364477 -7.372032 0.598972 11.664831 24.652089 -3.438927 0.364410 1.456608 0.000000 0.000000 0.000000 -11.345052 4.096875 -9.178084 19.265817 6.283193 19.330287 -28.844571 -24.776435 20.158769 0.000000 0.000000 0.000000 3.936128 5.085655 25.940985 37.654298 4.818322 22.572393 -24.719303 -30.704215 8.509300 11.534019 -1.337563 17.173823 0.000000 0.000000 0.000000 -38.513085 -33.178255 46.138840 2.667026 -42.924386 -6.228793 44.362803 -21.692602 -10.226525 0.000000 0.000000 0.000000 43.329089 43.066881 -3.531562 21.243506 1.676238 4.529225 -7.641694 40.238544 -2.640200 0.000000 0.000000 0.000000 
0.400341 0.907141 0.095600 173.527645 -74.689657 177.091680 17.291984 11.216152 -4.514917 2.134863 11.788825 25.154112 -5.266391 -1.488122 2.209440 0.000000 0.000000 0.000000 -9.757938 3.714014 -6.534692 17.108087 5.864036 17.659373 -27.690052 -22.152169 18.518921 0.000000 0.000000 0.000000 3.147621 3.879028 22.639799 36.812620 6.423979 22.911426 -24.667592 -30.400226 10.105586 12.576483 -1.757731 15.684125 0.000000 0.000000 0.000000 -38.108186 -31.991649 46.867785 0.826182 -43.496341 -6.186719 43.158033 -23.175243 -10.750874 0.000000 0.000000 0.000000 42.578933 40.744220 -9.872373 22.195610 -3.687054 4.333400 -2.134977 40.999765 -0.910721 0.000000 0.000000 0.000000 
0.399004 0.912147 0.090754 172.862124 -72.925259 176.539785 16.967005 10.712724 -2.253238 3.198307 11.924932 25.413768 -5.898570 -2.005211 3.510944 0.000000 0.000000 0.000000 -9.751743 4.053809 -4.113873 17.262415 5.845205 16.592436 -28.551312 -21.445545 19.956678 0.000000 0.000000 0.000000 2.563060 2.772947 19.357529 33.827894 7.419697 21.537934 -23.253563 -28.614698 11.709274 12.813772 -1.577935 13.841332 0.000000 0.000000 0.000000 -37.926032 -30.598112 47.921476 -0.934988 -44.569238 -6.366432 41.069939 -25.730667 -11.563452 0.000000 0.000000 0.000000 41.196945 38.413831 -16.430143 22.980294 -9.548732 3.958740 3.525466 40.731178 0.916742 0.000000 0.000000 0.000000 
0.397344 0.917888 0.087507 173.667504 -70.862480 174.858554 16.905681 10.703696 -0.573017 4.450916 12.794914 26.671920 -7.518285 -3.449025 3.990474 0.000000 0.000000 0.000000 -8.757474 4.261973 -1.196317 15.829636 5.411675 14.110288 -27.003677 -19.115351 18.628688 0.000000 0.000000 0.000000 2.287151 1.669379 15.863133 31.097170 8.640810 21.000736 -21.365655 -26.514828 13.581760 12.562864 -2.298876 9.114072 0.000000 0.000000 0.000000 -36.195931 -29.812868 48.061726 -3.288127 -46.385187 -6.091479 38.556135 -26.944505 -11.402281 0.000000 0.000000 0.000000 38.489812 36.476053 -21.251295 24.606758 -13.297562 3.728235 5.201708 39.948891 0.844353 0.000000 0.000000 0.000000 
0.395959 0.922568 0.086686 173.165042 -68.724161 174.499105 16.493920 10.483211 1.074397 5.671091 13.816458 28.030220 -8.644375 -4.383417 4.924889 0.000000 0.000000 0.000000 -8.858871 4.911752 0.718617 15.514305 5.308502 13.132342 -27.169472 -18.195819 19.193897 0.000000 0.000000 0.000000 1.970862 1.053959 13.308362 27.805444 9.180432 19.401823 -19.317648 -23.373853 14.199830 12.783181 -3.155454 5.415912 0.000000 0.000000 0.000000 -35.507722 -28.380234 48.031750 -6.500727 -47.402968 -5.535665 34.979339 -29.038501 -11.218725 0.000000 0.000000 0.000000 36.122057 33.807546 -24.882511 26.562279 -15.755159 3.241633 7.235975 36.817392 0.939028 0.000000 0.000000 0.000000 
